<?xml version="1.0" encoding="UTF-8" standalone="no"?>
<svg
   width="1000"
   height="200"
   xml:space="preserve"
   overflow="hidden"
   version="1.1"
   id="svg196"
   sodipodi:docname="sfclogoalt.svg"
   inkscape:version="1.2 (dc2aedaf03, 2022-05-15)"
   xmlns:inkscape="http://www.inkscape.org/namespaces/inkscape"
   xmlns:sodipodi="http://sodipodi.sourceforge.net/DTD/sodipodi-0.dtd"
   xmlns="http://www.w3.org/2000/svg"
   xmlns:svg="http://www.w3.org/2000/svg"><sodipodi:namedview
     id="namedview198"
     pagecolor="#c6d7d2"
     bordercolor="#666666"
     borderopacity="1.0"
     inkscape:showpageshadow="2"
     inkscape:pageopacity="0.05882353"
     inkscape:pagecheckerboard="true"
     inkscape:deskcolor="#d1d1d1"
     showgrid="false"
     inkscape:zoom="1.5488584"
     inkscape:cx="460.98468"
     inkscape:cy="214.99706"
     inkscape:window-width="1920"
     inkscape:window-height="1057"
     inkscape:window-x="-8"
     inkscape:window-y="802"
     inkscape:window-maximized="1"
     inkscape:current-layer="svg196" /><defs
     id="defs172"><linearGradient
       x1="988.06598"
       y1="488.505"
       x2="641.93402"
       y2="1439.49"
       gradientUnits="userSpaceOnUse"
       spreadMethod="reflect"
       id="fill1"
       gradientTransform="translate(-239,-51)"><stop
         offset="0"
         stop-color="#FDF1EC"
         id="stop5" /><stop
         offset="0.6"
         stop-color="#D5E9F2"
         id="stop7" /><stop
         offset="1"
         stop-color="#ADE0F9"
         id="stop9" /></linearGradient><linearGradient
       x1="781.01898"
       y1="1021.63"
       x2="745.677"
       y2="1409.03"
       gradientUnits="userSpaceOnUse"
       spreadMethod="reflect"
       id="fill2"
       gradientTransform="translate(-239,-51)"><stop
         offset="0"
         stop-color="#6AE1DA"
         id="stop12" /><stop
         offset="0.0344828"
         stop-color="#6BE1DA"
         id="stop14" /><stop
         offset="0.0689655"
         stop-color="#6DE1DA"
         id="stop16" /><stop
         offset="0.103448"
         stop-color="#6FE2DB"
         id="stop18" /><stop
         offset="0.137931"
         stop-color="#71E2DB"
         id="stop20" /><stop
         offset="0.172414"
         stop-color="#72E2DC"
         id="stop22" /><stop
         offset="0.206897"
         stop-color="#74E3DC"
         id="stop24" /><stop
         offset="0.241379"
         stop-color="#76E3DC"
         id="stop26" /><stop
         offset="0.275862"
         stop-color="#77E3DD"
         id="stop28" /><stop
         offset="0.310345"
         stop-color="#79E4DD"
         id="stop30" /><stop
         offset="0.344828"
         stop-color="#7AE4DD"
         id="stop32" /><stop
         offset="0.37931"
         stop-color="#7BE4DE"
         id="stop34" /><stop
         offset="0.413793"
         stop-color="#7CE4DE"
         id="stop36" /><stop
         offset="0.448276"
         stop-color="#7EE5DE"
         id="stop38" /><stop
         offset="0.482759"
         stop-color="#7FE5DE"
         id="stop40" /><stop
         offset="0.517241"
         stop-color="#80E5DF"
         id="stop42" /><stop
         offset="0.551724"
         stop-color="#81E5DF"
         id="stop44" /><stop
         offset="0.586207"
         stop-color="#82E5DF"
         id="stop46" /><stop
         offset="0.62069"
         stop-color="#83E6DF"
         id="stop48" /><stop
         offset="0.655172"
         stop-color="#83E6E0"
         id="stop50" /><stop
         offset="0.689655"
         stop-color="#84E6E0"
         id="stop52" /><stop
         offset="0.724138"
         stop-color="#85E6E0"
         id="stop54" /><stop
         offset="0.758621"
         stop-color="#85E6E0"
         id="stop56" /><stop
         offset="0.793103"
         stop-color="#86E6E0"
         id="stop58" /><stop
         offset="0.827586"
         stop-color="#86E6E0"
         id="stop60" /><stop
         offset="0.862069"
         stop-color="#87E6E0"
         id="stop62" /><stop
         offset="0.896552"
         stop-color="#87E6E0"
         id="stop64" /><stop
         offset="0.931035"
         stop-color="#87E6E0"
         id="stop66" /><stop
         offset="0.965517"
         stop-color="#87E6E0"
         id="stop68" /><stop
         offset="1"
         stop-color="#88E7E1"
         id="stop70" /></linearGradient><linearGradient
       x1="774.06598"
       y1="1097.84"
       x2="745.677"
       y2="1409.03"
       gradientUnits="userSpaceOnUse"
       spreadMethod="reflect"
       id="fill3"
       gradientTransform="translate(-239,-51)"><stop
         offset="0"
         stop-color="#62D8D5"
         id="stop73" /><stop
         offset="0.0666667"
         stop-color="#63D8D5"
         id="stop75" /><stop
         offset="0.133333"
         stop-color="#65D8D5"
         id="stop77" /><stop
         offset="0.2"
         stop-color="#67D9D6"
         id="stop79" /><stop
         offset="0.266667"
         stop-color="#69D9D6"
         id="stop81" /><stop
         offset="0.333333"
         stop-color="#6ADAD7"
         id="stop83" /><stop
         offset="0.4"
         stop-color="#6BDAD7"
         id="stop85" /><stop
         offset="0.466667"
         stop-color="#6DDAD7"
         id="stop87" /><stop
         offset="0.533333"
         stop-color="#6EDBD8"
         id="stop89" /><stop
         offset="0.6"
         stop-color="#6FDBD8"
         id="stop91" /><stop
         offset="0.666667"
         stop-color="#6FDBD8"
         id="stop93" /><stop
         offset="0.733333"
         stop-color="#70DBD8"
         id="stop95" /><stop
         offset="0.8"
         stop-color="#71DBD8"
         id="stop97" /><stop
         offset="0.866667"
         stop-color="#71DBD8"
         id="stop99" /><stop
         offset="0.933333"
         stop-color="#71DBD8"
         id="stop101" /><stop
         offset="1"
         stop-color="#72DCD9"
         id="stop103" /></linearGradient><linearGradient
       x1="765.02197"
       y1="1196.98"
       x2="745.677"
       y2="1409.03"
       gradientUnits="userSpaceOnUse"
       spreadMethod="reflect"
       id="fill4"
       gradientTransform="translate(-239,-51)"><stop
         offset="0"
         stop-color="#45D3CC"
         id="stop106" /><stop
         offset="0.0555556"
         stop-color="#46D3CC"
         id="stop108" /><stop
         offset="0.111111"
         stop-color="#48D3CC"
         id="stop110" /><stop
         offset="0.166667"
         stop-color="#4AD4CD"
         id="stop112" /><stop
         offset="0.222222"
         stop-color="#4CD4CD"
         id="stop114" /><stop
         offset="0.277778"
         stop-color="#4DD4CE"
         id="stop116" /><stop
         offset="0.333333"
         stop-color="#4FD5CE"
         id="stop118" /><stop
         offset="0.388889"
         stop-color="#50D5CF"
         id="stop120" /><stop
         offset="0.444444"
         stop-color="#51D5CF"
         id="stop122" /><stop
         offset="0.5"
         stop-color="#52D5CF"
         id="stop124" /><stop
         offset="0.555556"
         stop-color="#53D6CF"
         id="stop126" /><stop
         offset="0.611111"
         stop-color="#54D6D0"
         id="stop128" /><stop
         offset="0.666667"
         stop-color="#55D6D0"
         id="stop130" /><stop
         offset="0.722222"
         stop-color="#56D6D0"
         id="stop132" /><stop
         offset="0.777778"
         stop-color="#56D6D0"
         id="stop134" /><stop
         offset="0.833333"
         stop-color="#57D6D0"
         id="stop136" /><stop
         offset="0.888889"
         stop-color="#57D6D0"
         id="stop138" /><stop
         offset="0.944444"
         stop-color="#57D6D0"
         id="stop140" /><stop
         offset="1"
         stop-color="#58D7D1"
         id="stop142" /></linearGradient><linearGradient
       x1="758.66998"
       y1="1266.61"
       x2="745.677"
       y2="1409.03"
       gradientUnits="userSpaceOnUse"
       spreadMethod="reflect"
       id="fill5"
       gradientTransform="translate(-239,-51)"><stop
         offset="0"
         stop-color="#09BFB6"
         id="stop145" /><stop
         offset="0.0833333"
         stop-color="#09C0B7"
         id="stop147" /><stop
         offset="0.166667"
         stop-color="#09C2B9"
         id="stop149" /><stop
         offset="0.25"
         stop-color="#09C4BB"
         id="stop151" /><stop
         offset="0.333333"
         stop-color="#09C5BC"
         id="stop153" /><stop
         offset="0.416667"
         stop-color="#09C7BE"
         id="stop155" /><stop
         offset="0.5"
         stop-color="#09C8BF"
         id="stop157" /><stop
         offset="0.583333"
         stop-color="#09C9C0"
         id="stop159" /><stop
         offset="0.666667"
         stop-color="#09CAC1"
         id="stop161" /><stop
         offset="0.75"
         stop-color="#09CBC2"
         id="stop163" /><stop
         offset="0.833333"
         stop-color="#09CBC2"
         id="stop165" /><stop
         offset="0.916667"
         stop-color="#09CBC2"
         id="stop167" /><stop
         offset="1"
         stop-color="#0ACCC3"
         id="stop169" /></linearGradient></defs><g
     id="g1314"
     transform="matrix(0.17303333,0,0,0.17256653,-18.833938,-59.453614)"><path
       id="rect176"
       style="fill:url(#fill1)"
       d="M 688.55469,530.1875 556.83008,777.875 539.23242,776.98633 c -151.91685,0 -275.06836,123.12882 -275.06836,275.01367 0,129.1441 89.04945,237.4441 209.0918,267 h 131.95312 c 120.04152,-29.5559 209.0918,-137.8559 209.0918,-267 0,-56.95994 -17.3205,-109.86976 -46.98047,-153.76172 l -8.97461,-12.0039 132.23438,-248.64844 z" /><path
       id="path178"
       style="fill:url(#fill2)"
       d="m 287.96289,949.79883 c -1.49096,-0.0166 -2.6417,0.0419 -4.10742,0.0332 -12.65804,31.59587 -19.69141,66.05107 -19.69141,102.16797 0,151.8898 123.15151,275.0195 275.06836,275.0195 123.17687,0 227.42762,-80.9563 262.46875,-192.5507 -29.50782,4.5369 -65.86885,5.9262 -101.01953,-6.2188 -55.91794,-19.33 -108.7109,-72.9099 -163.08984,-109.0898 -54.37195,-36.27001 -110.32306,-55.21052 -167.25,-63.48051 -28.46297,-4.136 -57.16943,-5.59986 -82.37891,-5.88086 z" /><path
       id="path180"
       style="fill:url(#fill3)"
       d="m 264.47461,1064.2715 c 6.42579,146.1903 126.95744,262.748 274.75781,262.748 103.60631,0 193.74867,-57.3262 240.65625,-141.9316 -25.78978,1.9327 -55.2324,3.2213 -84.59961,2.2715 -57.50394,-1.94 -114.22152,-12.4988 -170.85547,-23.9688 -56.64094,-11.4 -113.19033,-23.7912 -168.61328,-48.5312 -32.91664,-14.7426 -64.67989,-33.5806 -91.3457,-50.5879 z" /><path
       id="path182"
       style="fill:url(#fill4)"
       d="m 282.99023,1151.4297 c 39.89555,102.6815 139.44081,175.5898 256.24219,175.5898 83.06368,0 157.35343,-36.9698 207.78906,-95.166 -17.48432,-6.118 -35.58934,-12.221 -54.17187,-17.7539 -56.14894,-16.79 -112.78526,-28.2505 -170.0332,-32.9805 -57.24295,-4.8 -115.10511,-2.8183 -171.87305,-12.8183 -23.51354,-4.1126 -46.71348,-10.2927 -67.95313,-16.8711 z" /><path
       id="path184"
       style="fill:url(#fill5)"
       d="m 347.94922,1201.1191 c -12.96612,-0.1102 -25.96091,0.5825 -38.70899,1.6817 49.1614,74.798 133.78284,124.2187 229.99219,124.2187 42.86483,0 83.43536,-9.8108 119.59961,-27.2968 -47.46815,-16.1974 -94.13724,-41.1303 -141.32031,-60.4434 -55.60395,-22.76 -111.93356,-37.5902 -169.5625,-38.1602 z" /><path
       d="M 118,482.065 C 118,468.774 128.774,458 142.065,458 h 883.875 c 13.29,0 24.06,10.774 24.06,24.065 v 883.875 c 0,13.29 -10.77,24.06 -24.06,24.06 H 142.065 C 128.774,1390 118,1379.23 118,1365.94 Z"
       stroke="#ffffff"
       stroke-width="18.3333"
       stroke-linecap="round"
       stroke-linejoin="round"
       stroke-miterlimit="10"
       fill="none"
       fill-rule="evenodd"
       id="path188" /><path
       d="M 1525.486,1299 V 621.456 H 1264.414 V 573.8 h 574.98 v 47.656 H 1578.322 V 1299 Z"
       id="path332"
       style="font-weight:300;font-size:1036px;font-family:'Montserrat Light', 'Montserrat Light_MSFontService', sans-serif;fill:#f2f2f2" /><path
       d="M 1969.9297,1299 V 573.8 h 44.548 l 336.7,581.196 h -23.828 L 2663.0137,573.8 h 43.512 l 1.036,725.2 h -51.8 l -1.036,-645.428 h 14.504 l -318.052,549.08 h -25.9 l -319.088,-549.08 h 15.54 V 1299 Z"
       id="path334"
       style="font-weight:300;font-size:1036px;font-family:'Montserrat Light', 'Montserrat Light_MSFontService', sans-serif;fill:#f2f2f2" /><path
       d="m 3244.2091,1304.18 q -134.68,0 -212.38,-78.736 -77.7,-78.736 -77.7,-234.136 V 573.8 h 52.836 v 415.436 q 0,135.716 62.16,200.984 62.16,65.268 176.12,65.268 112.924,0 175.084,-65.268 62.16,-65.268 62.16,-200.984 V 573.8 h 52.836 v 417.508 q 0,155.4 -77.7,234.136 -77.7,78.736 -213.416,78.736 z"
       id="path336"
       style="font-weight:300;font-size:1036px;font-family:'Montserrat Light', 'Montserrat Light_MSFontService', sans-serif;fill:#f2f2f2" /><path
       d="m 4238.7682,1304.18 q -80.808,0 -153.328,-26.936 -71.484,-27.972 -110.852,-71.484 l 23.828,-39.368 q 37.296,38.332 101.528,65.268 65.268,25.9 137.788,25.9 72.52,0 118.104,-18.648 46.62,-19.684 68.376,-51.8 22.792,-32.116 22.792,-71.484 0,-46.62 -24.864,-74.592 -24.864,-27.972 -65.268,-44.548 -40.404,-16.576 -88.06,-27.972 -47.656,-11.396 -96.348,-23.828 -48.692,-13.468 -89.096,-34.188 -40.404,-20.72 -65.268,-55.944 -23.828,-36.26 -23.828,-93.24 0,-51.8 26.936,-95.312 26.936,-43.512 83.916,-70.448 56.98,-26.936 146.076,-26.936 60.088,0 118.104,17.612 59.052,17.612 100.492,47.656 l -19.684,42.476 q -45.584,-31.08 -98.42,-45.584 -51.8,-15.54 -100.492,-15.54 -69.412,0 -114.996,19.684 -45.584,19.684 -67.34,52.836 -21.756,32.116 -21.756,72.52 0,46.62 23.828,74.592 24.864,27.972 65.268,44.548 40.404,16.576 89.096,27.972 48.692,11.396 96.348,24.864 47.656,12.432 88.06,33.152 40.404,20.72 65.268,55.944 24.864,35.224 24.864,91.168 0,50.764 -27.972,95.312 -27.972,43.512 -85.988,70.448 -56.98,25.9 -147.112,25.9 z"
       id="path338"
       style="font-weight:300;font-size:1036px;font-family:'Montserrat Light', 'Montserrat Light_MSFontService', sans-serif;fill:#f2f2f2" /><path
       d="m 4725.6875,931.22 h 392.644 v 47.656 h -392.644 z m 6.216,367.78 h -52.836 V 573.8 h 484.848 v 47.656 h -432.012 z"
       id="path340"
       style="font-weight:300;font-size:1036px;font-family:'Montserrat Light', 'Montserrat Light_MSFontService', sans-serif;fill:#f2f2f2" /><path
       d="m 5630.1151,1304.18 q -80.808,0 -150.22,-26.936 -68.376,-27.972 -119.14,-77.7 -50.764,-49.728 -78.736,-116.032 -27.972,-67.34 -27.972,-147.112 0,-79.772 27.972,-146.076 27.972,-67.34 78.736,-117.068 51.8,-49.728 120.176,-76.664 68.376,-27.972 149.184,-27.972 76.664,0 142.968,24.864 67.34,24.864 114.996,75.628 l -33.152,34.188 q -46.62,-45.584 -103.6,-65.268 -55.944,-20.72 -119.14,-20.72 -69.412,0 -129.5,23.828 -59.052,23.828 -103.6,67.34 -43.512,43.512 -68.376,101.528 -23.828,58.016 -23.828,126.392 0,68.376 23.828,126.392 24.864,58.016 68.376,101.528 44.548,43.512 103.6,67.34 60.088,23.828 129.5,23.828 63.196,0 119.14,-19.684 56.98,-20.72 103.6,-67.34 l 33.152,34.188 q -47.656,50.764 -114.996,76.664 -66.304,24.864 -142.968,24.864 z"
       id="path342"
       style="font-weight:300;font-size:1036px;font-family:'Montserrat Light', 'Montserrat Light_MSFontService', sans-serif;fill:#f2f2f2" /><path
       d="m 3647,939 h 266.46"
       stroke="#f2f2f2"
       stroke-width="29.7917"
       stroke-miterlimit="8"
       fill="none"
       fill-rule="evenodd"
       id="path192" /></g></svg>
